<?xml version="1.0" encoding="UTF-8"?>
<svg width="24px" height="24px" viewBox="0 0 24 24" version="1.1" xmlns="http://www.w3.org/2000/svg" xmlns:xlink="http://www.w3.org/1999/xlink">
    <!-- Generator: Sketch 52.6 (67491) - http://www.bohemiancoding.com/sketch -->
    <title>linkedin</title>
    <desc>Created with Sketch.</desc>
    <g id="Page-1" stroke="none" stroke-width="1" fill="none" fill-rule="evenodd">
        <g id="1.1.1-Portfolio-Jayce-|-intro-dark" transform="translate(-24.000000, -618.000000)" fill-rule="nonzero">
            <g id="Heading" transform="translate(0.000000, -5.000000)">
                <g id="linkedin" transform="translate(24.000000, 623.000000)">
                    <circle id="Oval" fill="#E2E8E8" cx="12" cy="12" r="12"></circle>
                    <g id="flaticon1556551397-svg" transform="translate(6.000000, 6.000000)" fill="#1E2424">
                        <path d="M10.9145026,0 L1.08549738,0 C0.486,0 0,0.486 0,1.08549738 L0,10.9144712 C0,11.514 0.486,12 1.08549738,12 L10.9144712,12 C11.514,12 12,11.514 12,10.9144712 L12,1.08549738 C12,0.486 11.514,0 10.9145026,0 Z M3.7133089,10.3615916 C3.7133089,10.5360628 3.57188482,10.6774869 3.39741361,10.6774869 L2.05272251,10.6774869 C1.87825131,10.6774869 1.73682723,10.5360628 1.73682723,10.3615916 L1.73682723,4.72470157 C1.73682723,4.55023037 1.87825131,4.40880628 2.05272251,4.40880628 L3.39741361,4.40880628 C3.57188482,4.40880628 3.7133089,4.55023037 3.7133089,4.72470157 L3.7133089,10.3615916 Z M2.72506806,3.87744503 C2.01954974,3.87744503 1.44760209,3.30549738 1.44760209,2.59997906 C1.44760209,1.89446073 2.01954974,1.32251309 2.72506806,1.32251309 C3.43058639,1.32251309 4.00253403,1.89446073 4.00253403,2.59997906 C4.00253403,3.30549738 3.4306178,3.87744503 2.72506806,3.87744503 Z M10.7406283,10.3870366 C10.7406283,10.5474346 10.6105759,10.6774869 10.450178,10.6774869 L9.00722513,10.6774869 C8.84682723,10.6774869 8.71677487,10.5474346 8.71677487,10.3870366 L8.71677487,7.74301571 C8.71677487,7.34858639 8.8324712,6.01460733 7.686,6.01460733 C6.79671204,6.01460733 6.61633508,6.92767539 6.58011518,7.33743455 L6.58011518,10.3870366 C6.58011518,10.5474346 6.45009424,10.6774869 6.28966492,10.6774869 L4.89408377,10.6774869 C4.73368586,10.6774869 4.60363351,10.5474346 4.60363351,10.3870366 L4.60363351,4.69925654 C4.60363351,4.53885864 4.73368586,4.40880628 4.89408377,4.40880628 L6.28966492,4.40880628 C6.45006283,4.40880628 6.58011518,4.53885864 6.58011518,4.69925654 L6.58011518,5.19103665 C6.90986387,4.69617801 7.39991623,4.3142199 8.44331937,4.3142199 C10.7538534,4.3142199 10.7406283,6.4728377 10.7406283,7.65889005 L10.7406283,10.3870366 Z" id="Shape"></path>
                    </g>
                </g>
            </g>
        </g>
    </g>
</svg>