<?xml version="1.0" encoding="UTF-8"?>
<svg width="16px" height="16px" viewBox="0 0 16 16" version="1.1" xmlns="http://www.w3.org/2000/svg" xmlns:xlink="http://www.w3.org/1999/xlink">
    <!-- Generator: Sketch 52.6 (67491) - http://www.bohemiancoding.com/sketch -->
    <title>flaticon1556552847-svg</title>
    <desc>Created with Sketch.</desc>
    <g id="Page-1" stroke="none" stroke-width="1" fill="none" fill-rule="evenodd">
        <g id="1.2.1.1-Portfolio-Jayce-|-over-bright" transform="translate(-152.000000, -608.000000)" fill="#090B0B" fill-rule="nonzero">
            <g id="Scroll-down" transform="translate(152.000000, 604.000000)">
                <g id="flaticon1556552847-svg" transform="translate(0.000000, 4.000000)">
                    <path d="M7.62941754,9.20011228 C7.73619649,9.30689123 7.8592,9.36016842 7.99809123,9.36016842 C8.13698246,9.36016842 8.2597614,9.30694737 8.36648421,9.20011228 L15.8361825,1.73075088 C15.9429614,1.62391579 15.996014,1.50096842 15.996014,1.36207719 C15.996014,1.22318596 15.9426246,1.10018246 15.8361825,0.993403509 L15.0348351,0.191831579 C14.9280561,0.0849964912 14.8050526,0.0316631579 14.665993,0.0316631579 C14.5272702,0.0316631579 14.4043228,0.0849964912 14.2975439,0.191831579 L7.99809123,6.49105965 L1.6989193,0.191831579 C1.59208421,0.0849964912 1.46913684,0.0316631579 1.33024561,0.0316631579 C1.19129825,0.0316631579 1.06835088,0.0849964912 0.96157193,0.191831579 L0.160336842,0.993403509 C0.0533333333,1.10018246 0,1.2229614 0,1.36207719 C0,1.50119298 0.0535017544,1.62397193 0.160336842,1.73075088 L7.62941754,9.20011228 Z" id="Path"></path>
                    <path d="M15.0348351,6.34683509 C14.9280561,6.24 14.8050526,6.18666667 14.665993,6.18666667 C14.5272702,6.18666667 14.4043228,6.24 14.2975439,6.34683509 L7.99809123,12.646007 L1.6989193,6.34666667 C1.59208421,6.23983158 1.46913684,6.18649825 1.33024561,6.18649825 C1.19129825,6.18649825 1.06835088,6.23983158 0.96157193,6.34666667 L0.160336842,7.14818246 C0.0533333333,7.25501754 0,7.37796491 0,7.5168 C0,7.65569123 0.0535017544,7.77869474 0.160336842,7.88564211 L7.62941754,15.3548912 C7.73619649,15.4617263 7.8592,15.5151158 7.99809123,15.5151158 C8.13698246,15.5151158 8.2597614,15.4617263 8.36648421,15.3548912 L15.8361825,7.88564211 C15.9429614,7.77880702 15.996014,7.65585965 15.996014,7.5170807 C15.996014,7.37818947 15.9426246,7.25541053 15.8361825,7.14840702 L15.0348351,6.34683509 Z" id="Path"></path>
                </g>
            </g>
        </g>
    </g>
</svg>